<svg id="book" xmlns="http://www.w3.org/2000/svg" xmlns:xlink="http://www.w3.org/1999/xlink" width="249.988" height="220.453" viewBox="0 0 2133 1881">
  <metadata><?xpacket begin="﻿" id="W5M0MpCehiHzreSzNTczkc9d"?>
<x:xmpmeta xmlns:x="adobe:ns:meta/" x:xmptk="Adobe XMP Core 5.6-c138 79.159824, 2016/09/14-01:09:01        ">
   <rdf:RDF xmlns:rdf="http://www.w3.org/1999/02/22-rdf-syntax-ns#">
      <rdf:Description rdf:about=""/>
   </rdf:RDF>
</x:xmpmeta>
                                                                                                    
                                                                                                    
                                                                                                    
                                                                                                    
                                                                                                    
                                                                                                    
                                                                                                    
                                                                                                    
                                                                                                    
                                                                                                    
                                                                                                    
                                                                                                    
                                                                                                    
                                                                                                    
                                                                                                    
                                                                                                    
                                                                                                    
                                                                                                    
                                                                                                    
                                                                                                    
                           
<?xpacket end="w"?></metadata>
<defs>
    <style>
      .cls-1 {
        fill: url(#linear-gradient);
      }

      .cls-2 {
        fill: #fff;
        fill-rule: evenodd;
      }
    </style>
    <linearGradient id="linear-gradient" x1="1544.973" y1="1881" x2="585.027" y2="-3" gradientUnits="userSpaceOnUse">
      <stop offset="0" stop-color="#ff8400"/>
      <stop offset="1" stop-color="#ffe617"/>
    </linearGradient>
  </defs>
  <rect class="cls-1" x="-3" y="-3" width="2136" height="1884" rx="280" ry="280"/>
  <path class="cls-2" d="M1754.14,406.142V1499.32c-61.9-38.25-196.39-104.05-330.07-104.05s-261.32,65.8-330.07,104.05V406.142c48.13-27.722,188.27-112.614,330.07-112.614S1712.86,378.42,1754.14,406.142Zm-715.14,0V1499.32c-61.907-38.25-196.395-104.05-330.071-104.05s-261.289,65.8-330.071,104.05V406.142C427.014,378.42,567.13,293.528,708.929,293.528S997.748,378.42,1039,406.142ZM1784.49,1600.73a42.157,42.157,0,0,1-24.26-7.82c-1.77-1.25-169.81-118.11-333.32-118.11-162.82,0-331.62,116.9-333.3,118.08q-0.465.33-.96,0.63a23.4,23.4,0,0,1-2.74,1.65c-0.75.42-1.5,0.84-2.25,1.22l-0.92.44c-0.84.37-1.68,0.72-2.55,1.05-0.79.32-1.5,0.59-2.2,0.82a33.158,33.158,0,0,1-3.25.88l-0.66.15c-0.76.19-1.49,0.35-2.21,0.46-1.06.18-2.14,0.28-3.23,0.36l-1.3.09-0.48.03a24.45,24.45,0,0,1-4.24-.09,25.51,25.51,0,0,1-3.26-.33c-0.83-.13-1.62-0.28-2.42-0.45l-0.52-.11c-0.87-.2-1.73-0.41-2.6-0.66a27.86,27.86,0,0,1-3.26-1.14c-0.86-.33-1.66-0.64-2.47-0.99l-0.6-.28c-0.81-.39-1.62-0.84-2.41-1.29-0.72-.37-1.43-0.75-2.1-1.17a0.594,0.594,0,0,0-.08-0.04c-0.21-.12-0.42-0.23-0.61-0.34l-1.41-.9c-1.65-1.16-170.613-118.07-333.456-118.07-162.938,0-331.975,116.91-333.664,118.09a42.612,42.612,0,0,1-47.629,1.07C314.873,1584.2,305,1566.03,305,1547.67V382.982A56.152,56.152,0,0,1,328.362,337.8C336.2,332.3,521.273,204,711.6,204c152.545,0,302.592,83.739,357.382,117.886C1132.4,282.187,1276.37,204,1426.19,204c185.14,0,361.63,120.067,381.15,133.758,13.15,9.3,20.66,25.769,20.66,45.224V1547.67c0,20.31-8.12,37.18-22.27,46.27C1800.53,1597.29,1793.93,1600.73,1784.49,1600.73Zm-357.58-169.09c174.81,0,351.45,123.34,353.18,124.58a7.87,7.87,0,0,0,4.4,1.35c0.6,0,.83,0,2.76-1.25,2.64-1.7,3.04-6.15,3.04-8.65V382.982c0-2.986-.47-6.88-2.72-8.468-7.36-5.161-183.58-127.354-361.38-127.354-152.88,0-304.96,90.47-347.93,118.2l-9.26,5.976-9.27-5.976c-42.97-27.729-195.067-118.2-348.132-118.2-179.808,0-356.055,122.193-363.471,127.394-3.368,2.383-5.415,6.168-5.415,8.428V1547.67c0,2.35,2.228,6.32,5.829,8.62a8.964,8.964,0,0,0,9.5-.19c1.713-1.21,178.213-124.46,353.386-124.46,167.635,0,336.9,113.27,352.156,123.73q0.24,0.135.51,0.3l1.95,1.1c0.14,0.05.29,0.11,0.43,0.16l0.69,0.27c0.19,0.05.34,0.08,0.49,0.12,0.27,0.05.44,0.09,0.6,0.12l0.4,0.03c0.25,0.01.49,0.03,0.74,0.05l0.5-.03,2.53-.62c0.08-.03.17-0.07,0.26-0.1,0.09-.06.19-0.11,0.29-0.17,0.19-.11.38-0.23,0.58-0.33v-0.01l1.05-.66C1086.62,1547.31,1257.55,1431.64,1426.91,1431.64Zm-358.19,125.88,0.18,0.03h0.01Zm-1.99-.43c0.05,0.01.1,0.03,0.14,0.04C1066.83,1557.12,1066.78,1557.1,1066.73,1557.09Zm8.64-1.92a0.488,0.488,0,0,0-.07.03Z"/>
</svg>
