<svg id="book" xmlns="http://www.w3.org/2000/svg" xmlns:xlink="http://www.w3.org/1999/xlink" width="234.4" height="234.048" viewBox="0 0 2000 1997">
  <metadata><?xpacket begin="﻿" id="W5M0MpCehiHzreSzNTczkc9d"?>
<x:xmpmeta xmlns:x="adobe:ns:meta/" x:xmptk="Adobe XMP Core 5.6-c138 79.159824, 2016/09/14-01:09:01        ">
   <rdf:RDF xmlns:rdf="http://www.w3.org/1999/02/22-rdf-syntax-ns#">
      <rdf:Description rdf:about=""/>
   </rdf:RDF>
</x:xmpmeta>
                                                                                                    
                                                                                                    
                                                                                                    
                                                                                                    
                                                                                                    
                                                                                                    
                                                                                                    
                                                                                                    
                                                                                                    
                                                                                                    
                                                                                                    
                                                                                                    
                                                                                                    
                                                                                                    
                                                                                                    
                                                                                                    
                                                                                                    
                                                                                                    
                                                                                                    
                                                                                                    
                           
<?xpacket end="w"?></metadata>
<defs>
    <style>
      .cls-1 {
        fill: url(#linear-gradient);
      }

      .cls-2 {
        fill: #fff;
        fill-rule: evenodd;
      }
    </style>
    <linearGradient id="linear-gradient" x1="1509.525" y1="1997" x2="490.475" y2="-3" gradientUnits="userSpaceOnUse">
      <stop offset="0" stop-color="#ff7200"/>
      <stop offset="1" stop-color="#ffbb17"/>
    </linearGradient>
  </defs>
  <rect class="cls-1" y="-3" width="2000" height="2000" rx="500" ry="500"/>
  <path class="cls-2" d="M1633.12,560.147V1444.18c-56.91-30.93-180.54-84.14-303.42-84.14s-240.22,53.21-303.42,84.14V560.147c44.24-22.418,173.07-91.069,303.42-91.069S1595.17,537.729,1633.12,560.147Zm-657.4,0V1444.18c-56.909-30.93-180.538-84.14-303.421-84.14s-240.193,53.21-303.421,84.14V560.147c44.267-22.418,173.071-91.069,303.421-91.069S937.8,537.729,975.719,560.147ZM1661.01,1526.19a42.541,42.541,0,0,1-22.29-6.32c-1.63-1.01-156.11-95.52-306.41-95.52-149.68,0-304.84,94.54-306.39,95.49-0.29.18-.58,0.35-0.88,0.51a19.133,19.133,0,0,1-2.52,1.33c-0.69.35-1.38,0.69-2.07,1l-0.85.35c-0.77.29-1.54,0.58-2.34,0.85-0.73.25-1.38,0.47-2.02,0.66-1.14.33-2.06,0.53-2.99,0.71l-0.61.12c-0.7.16-1.36,0.29-2.03,0.38-0.97.14-1.96,0.22-2.97,0.29l-1.2.07c-0.14.01-.29,0.02-0.43,0.02a24.558,24.558,0,0,1-3.9-.07,26.556,26.556,0,0,1-3-.26c-0.768-.11-1.491-0.23-2.23-0.37l-0.471-.09c-0.8-.16-1.6-0.33-2.394-0.53-0.918-.22-1.946-0.55-3-0.92-0.789-.27-1.527-0.52-2.266-0.81l-0.557-.22c-0.743-.32-1.492-0.68-2.212-1.05-0.667-.29-1.314-0.6-1.93-0.94a0.279,0.279,0,0,1-.073-0.04c-0.2-.09-0.386-0.18-0.561-0.27l-1.3-.73c-1.524-.93-156.841-95.48-306.536-95.48-149.782,0-305.171,94.55-306.724,95.5a43.652,43.652,0,0,1-43.783.86c-14.027-7.88-23.1-22.58-23.1-37.43V541.418c0-14.3,8.229-28.3,21.475-36.54,7.209-4.448,177.336-108.2,352.295-108.2,140.228,0,278.157,67.719,328.528,95.333,58.3-32.1,190.64-95.333,328.37-95.333,170.19,0,332.43,97.1,350.37,108.168,12.09,7.521,19,20.839,19,36.572V1483.28c0,16.43-7.47,30.07-20.47,37.42A37.715,37.715,0,0,1,1661.01,1526.19Zm-328.7-136.74c160.7,0,323.07,99.74,324.67,100.75a7.886,7.886,0,0,0,4.03,1.08c0.56,0,.77,0,2.55-1,2.43-1.38,2.79-4.97,2.79-7V541.418c0-2.415-.43-5.564-2.5-6.848-6.76-4.173-168.76-102.989-332.2-102.989-140.54,0-280.34,73.162-319.84,95.586L1003.29,532l-8.511-4.832c-39.5-22.424-179.321-95.586-320.027-95.586-165.291,0-327.308,98.816-334.125,103.021-3.1,1.928-4.978,4.989-4.978,6.816V1483.28c0,1.91,2.048,5.11,5.358,6.97a9.194,9.194,0,0,0,8.731-.15c1.574-.98,163.823-100.65,324.853-100.65,154.1,0,309.7,91.6,323.721,100.06,0.149,0.07.306,0.15,0.467,0.24l1.791,0.89c0.14,0.04.27,0.09,0.4,0.13l0.64,0.22c0.17,0.04.31,0.07,0.45,0.09,0.24,0.05.4,0.08,0.55,0.1l0.37,0.02c0.22,0.01.45,0.03,0.68,0.05l0.46-.03,2.32-.5c0.08-.03.16-0.05,0.24-0.08,0.09-.05.17-0.09,0.26-0.14l0.54-.27h0l0.96-.53C1019.49,1482.99,1176.62,1389.45,1332.31,1389.45Zm-329.27,101.8,0.17,0.02h0.01C1003.16,1491.26,1003.1,1491.26,1003.04,1491.25Zm-1.83-.35c0.05,0.01.09,0.02,0.13,0.03C1001.3,1490.92,1001.26,1490.91,1001.21,1490.9Zm7.94-1.55a0.142,0.142,0,0,1-.06.02Z"/>
</svg>
